<svg xmlns="http://www.w3.org/2000/svg" viewBox="0 0 130 260">
  <defs>
    <radialGradient id="lamp" cx="50%" cy="42%" r="55%">
      <stop offset="0" stop-color="#fff2c5"/>
      <stop offset="0.48" stop-color="#f4b96d"/>
      <stop offset="1" stop-color="#7d311f"/>
    </radialGradient>
    <filter id="glow" x="-80%" y="-80%" width="260%" height="260%">
      <feGaussianBlur stdDeviation="10" result="b"/>
      <feMerge><feMergeNode in="b"/><feMergeNode in="SourceGraphic"/></feMerge>
    </filter>
  </defs>
  <path d="M65 0v38" stroke="#d7b56d" stroke-width="3"/>
  <g filter="url(#glow)">
    <path d="M34 42c-18 16-21 99 0 118 15 14 47 14 62 0 21-19 18-102 0-118-15-13-47-13-62 0z" fill="url(#lamp)" opacity="0.92"/>
    <path d="M34 42c20 16 42 16 62 0M31 157c22-13 46-13 68 0" stroke="#5f281d" stroke-width="4" opacity="0.55"/>
    <path d="M47 38c-13 32-13 94 0 126M65 34v135M83 38c13 32 13 94 0 126" stroke="#8b4728" stroke-width="2" opacity="0.65"/>
    <path d="M46 86c17 13 32 8 45-5" stroke="#9b342f" stroke-width="2" fill="none" opacity="0.55"/>
  </g>
  <path d="M65 169v34" stroke="#d7b56d" stroke-width="3"/>
  <path d="M48 204h34l-17 19z" fill="#a02d28"/>
  <path d="M55 223v28M65 223v35M75 223v28" stroke="#c99358" stroke-width="3" stroke-linecap="round"/>
</svg>
